<svg width="628" height="419" viewBox="0 0 628 419" fill="none" xmlns="http://www.w3.org/2000/svg">
<path d="M0.663008 277.105C0.185654 298.228 0.0132755 319.47 1.56198e-05 338.71C-0.0265041 380.518 33.7198 414.49 75.5282 414.795L535.725 418.017C577.453 418.322 611.651 384.947 612.34 343.218L613.454 277.105H0.663008Z" fill="#F6E8E7"/>
<path d="M36.1861 377.415C36.1861 393.884 202.942 411.042 335.196 411.042C467.45 411.042 515.119 393.897 515.119 377.415C515.119 360.933 382.229 347.581 249.975 347.581C117.721 347.581 36.1729 360.933 36.1729 377.415H36.1861Z" fill="#EBDADA"/>
<path d="M585.834 399.665H439.776L473.748 416.373H552.061C564.764 413.694 576.326 407.833 585.834 399.665Z" fill="#EBDADA"/>
<path d="M200.317 340.367L212.98 277.834C213.046 277.529 212.913 277.237 212.675 277.065H211.773C211.627 277.171 211.508 277.33 211.468 277.529L198.739 340.354H85.5525L110.441 277.953C110.574 277.622 110.455 277.25 110.176 277.051H109.274C109.168 277.131 109.075 277.25 109.009 277.383L83.895 340.341H0.0131836C0.0131836 340.858 0.039702 341.362 0.0662217 341.879H83.2983L55.3598 411.917C55.8504 412.063 56.3543 412.196 56.8449 412.315L84.9558 341.866H198.447L183.53 415.524H185.094L200.012 341.866H317.772L317.892 340.327H200.317V340.367Z" fill="#E2D0D0"/>
<path d="M324.442 277.741C324.469 277.463 324.336 277.211 324.124 277.065H323.222C323.05 277.197 322.931 277.383 322.904 277.622L317.865 340.367H319.403L324.429 277.754L324.442 277.741Z" fill="#E2D0D0"/>
<path d="M311.779 416.439L313.317 416.452L319.297 341.892H317.759L311.779 416.439Z" fill="#E2D0D0"/>
<path d="M440.4 417.341H441.938L438.106 341.892H554.965L568.039 411.082C568.516 410.857 568.994 410.631 569.471 410.406L556.529 341.892H612.353L612.38 340.354H556.238L544.37 277.529C544.33 277.33 544.224 277.171 544.065 277.051H543.163C542.938 277.224 542.805 277.516 542.859 277.807L554.673 340.341H438.026L434.844 277.622C434.844 277.383 434.711 277.171 434.525 277.038H433.624C433.425 277.184 433.306 277.423 433.319 277.688L436.501 340.327H319.417L319.297 341.866H436.581L440.413 417.314L440.4 417.341Z" fill="#E2D0D0"/>
<path d="M0.0400391 323.037L37.8837 278.179C38.1621 277.86 38.1091 277.37 37.7908 277.105C37.7776 277.105 37.7643 277.078 37.7511 277.078H36.8494C36.8494 277.078 36.7566 277.158 36.7168 277.197L0.0532992 320.65C0.0532992 321.446 0.0532989 322.241 0.0400391 323.037Z" fill="#E2D0D0"/>
<path d="M77.7959 277.065L52.4961 285.047H270.873L245.573 277.065H77.7959Z" fill="#E2D0D0"/>
<path d="M270.873 285.047H52.4961V294.979H270.873V285.047Z" fill="#D6C1C1"/>
<path d="M417.102 0C248.517 0 247.615 144.466 189.364 147.609C140.555 147.609 104.475 151.931 77.7827 159.49V277.065H613.454L615.43 159.238C615.43 90.8434 585.701 0 417.116 0H417.102Z" fill="#FFD185"/>
<path d="M245.573 95.1395C226.518 122.959 212.45 146.376 189.378 147.609C140.568 147.609 104.488 151.931 77.7959 159.49V277.065H245.573V95.1395Z" fill="#FFDE8F"/>
<path d="M237.391 107.14C222.156 129.403 209.028 146.548 189.377 147.609C145.381 147.609 111.728 151.123 85.9771 157.341V267.133H237.405V107.126L237.391 107.14Z" fill="#FFEA9B"/>
<path d="M229.025 118.994C217.024 135.237 205.356 146.747 189.378 147.609C149.996 147.609 118.901 150.42 94.3442 155.472V170.787H229.025V118.981V118.994Z" fill="white"/>
<path d="M224.357 125.08C213.922 138.062 203.287 146.866 189.378 147.609C152.449 147.609 122.813 150.088 99.0117 154.557V167.101H224.357V125.08Z" fill="#D7EBF9"/>
<path d="M216.083 134.322C208.14 142.106 199.641 147.065 189.364 147.622C174.739 147.622 161.253 148.007 148.816 148.762L135.861 167.114H192.918L216.083 134.336V134.322Z" fill="#E4EFF7"/>
<path d="M99.5023 193.382C102.351 193.382 104.66 191.072 104.66 188.224C104.66 185.375 102.351 183.066 99.5023 183.066C96.6536 183.066 94.3442 185.375 94.3442 188.224C94.3442 191.072 96.6536 193.382 99.5023 193.382Z" fill="white"/>
<path d="M99.5023 220.233C102.351 220.233 104.66 217.924 104.66 215.075C104.66 212.226 102.351 209.917 99.5023 209.917C96.6536 209.917 94.3442 212.226 94.3442 215.075C94.3442 217.924 96.6536 220.233 99.5023 220.233Z" fill="white"/>
<path d="M99.5951 216.149C98.9454 216.149 98.4282 215.632 98.4282 214.982V188.118C98.4282 187.468 98.9454 186.951 99.5951 186.951C100.245 186.951 100.762 187.468 100.762 188.118V214.982C100.762 215.632 100.245 216.149 99.5951 216.149Z" fill="#D8D8D8"/>
<path d="M237.975 106.278C237.59 106.848 237.192 107.418 236.808 107.988V266.55H86.5604V157.196C86.1759 157.288 85.7781 157.381 85.3936 157.474V267.703H237.988V106.264L237.975 106.278Z" fill="#FFDA94"/>
<path d="M615.045 181.7H251.022V267.146H613.613L615.045 181.7Z" fill="#FFDE8F"/>
<path d="M614.886 191.433H262.505V261.498H613.706L614.886 191.433Z" fill="#FFEA9B"/>
<path d="M614.753 198.818H269.506V254.099H613.838L614.753 198.818Z" fill="#FFEAB4"/>
<path d="M269.507 198.818C266.629 196.949 264.203 194.403 262.505 191.419C265.383 193.289 267.796 195.835 269.507 198.818Z" fill="#FFDA94"/>
<path d="M269.507 254.099C267.796 257.069 265.383 259.628 262.505 261.498C264.216 258.514 266.629 255.968 269.507 254.099Z" fill="#FFDA94"/>
<path d="M268.923 254.682H613.825L613.839 253.515H270.09V199.415H614.754L614.767 198.235H268.923V254.682Z" fill="#FFDA94"/>
<path d="M417.102 0C321.485 0 279.81 46.4759 251.009 87.2765V172.736H615.191L615.417 159.238C615.417 90.8434 585.688 0 417.102 0Z" fill="#D7EBF9"/>
<path d="M607.474 172.749L615.39 161.545L615.43 159.251C615.43 127.414 608.985 90.7107 585.091 60.5844L505.824 172.763H607.461L607.474 172.749Z" fill="#E4EFF7"/>
<path d="M462.583 2.49286L342.29 172.736H429.646L535.977 22.2633C516.418 12.8886 492.299 5.95368 462.597 2.49286H462.583Z" fill="#E4EFF7"/>
<path d="M251.022 87.2897V156.891L356.637 7.42566C302.086 22.1574 272.848 56.3545 251.022 87.2897Z" fill="#E4EFF7"/>
<path d="M417.102 0C321.485 0 279.81 46.4759 251.009 87.2765V172.736C251.009 172.736 301.251 25.101 345.99 13.5251C357.658 10.5019 384.284 5.59566 417.248 0C417.195 0 417.142 0 417.089 0H417.102Z" fill="#CCE7F9"/>
<path d="M449.35 1.20669C447.812 1.08736 446.247 0.981277 444.683 0.875198V41.3708H449.35V1.20669Z" fill="white"/>
<path d="M571.579 46.0383C569.856 44.4472 568.066 42.8957 566.209 41.3708H550.35V30.0867C548.826 29.1585 547.274 28.2304 545.683 27.3287V41.3576H449.337V46.0251H545.683V101.106H449.337V105.774H545.683V172.723H550.35V105.774H608.216C607.752 104.209 607.262 102.658 606.745 101.106H550.337V46.0251H571.553L571.579 46.0383Z" fill="white"/>
<path d="M449.337 105.787H444.669V172.736H449.337V105.787Z" fill="white"/>
<path d="M449.337 46.0383H444.669V101.12H449.337V46.0383Z" fill="white"/>
<path d="M348.337 101.12V46.0383H444.683V41.3708H348.337V9.86542C346.759 10.3693 345.194 10.8996 343.669 11.4433V41.3708H291.452C289.635 42.909 287.872 44.4604 286.161 46.0383H343.669V101.12H251.022V105.787H343.669V172.736H348.337V105.787H444.683V101.12H348.337Z" fill="white"/>
<path d="M256.658 79.4664C254.722 82.0918 252.839 84.7041 251.009 87.2897V172.749H256.658V79.4664Z" fill="white"/>
<path d="M615.297 167.101H251.022V172.749H615.191L615.297 167.101Z" fill="white"/>
<path d="M77.7957 277.065V159.49C5.43664 179.963 2.01559 224.184 0.822203 270.382C0.769163 272.609 0.716125 274.837 0.663086 277.078H77.7957V277.065Z" fill="#D69581"/>
<path d="M77.7957 277.065V263.248H1.03436C0.954801 265.621 0.888502 267.995 0.822203 270.382C0.769163 272.609 0.716125 274.837 0.663086 277.078H77.7957V277.065Z" fill="#CC8976"/>
<path d="M77.7957 159.49C74.8918 160.312 72.1072 161.174 69.4287 162.062V277.065H77.7957V159.49Z" fill="#EFC0B4"/>
<path d="M129.376 269.321L120.612 368.77C120.413 371.21 122.349 373.305 124.802 373.305H127.573C129.655 373.305 131.432 371.767 131.723 369.711L147.635 269.321H129.376Z" fill="#CC8F7F"/>
<path d="M98.8919 264.879L81.0707 363.983C80.6596 366.542 82.6221 368.863 85.221 368.863H87.8863C89.8487 368.863 91.546 367.51 91.9835 365.601L117.164 264.879H98.9052H98.8919Z" fill="#B37769"/>
<path d="M180.944 265.197L198.765 364.301C199.19 366.861 197.214 369.181 194.615 369.181H191.95C189.987 369.181 188.29 367.828 187.852 365.919L162.672 265.197H180.931H180.944Z" fill="#B37769"/>
<path d="M232.418 264.388L249.935 368.465C250.319 371.011 248.357 373.305 245.784 373.305H243.119C241.143 373.305 239.433 371.926 239.009 369.99L214.16 264.388H232.418Z" fill="#CC8F7F"/>
<path d="M95.2452 259.787C95.2452 259.787 96.8894 272.649 115.228 274.572C133.566 276.495 205.58 275.938 224.197 271.562C242.814 267.186 239.526 254.855 239.526 254.855L95.2319 259.787H95.2452Z" fill="#B37769"/>
<path d="M176.568 117.151C176.568 117.151 192.997 115.785 192.997 129.748V207.504C192.997 207.504 190.531 217.09 216.268 222.01C240.215 226.598 241.462 236.516 239.817 253.502L188.621 233.785V129.191C188.621 129.191 188.9 118.782 176.581 117.138L176.568 117.151Z" fill="#6482A1"/>
<path d="M92.2354 129.191V245.002H188.608V129.191C188.608 122.534 183.211 117.138 176.555 117.138H104.275C97.6189 117.138 92.2222 122.534 92.2222 129.191H92.2354Z" fill="#537191"/>
<path d="M92.2354 245.002C92.2354 245.002 91.6918 233.771 117.151 233.771H188.608L239.804 253.489C239.804 253.489 243.093 260.609 220.909 264.441C198.725 268.273 157.408 270.05 148.351 269.096C137.942 267.995 92.2222 245.002 92.2222 245.002H92.2354Z" fill="#537191"/>
<path d="M120.665 221.784C120.665 221.784 122.495 196.856 164.993 199.932C197.386 202.279 259.297 209.864 271.774 221.466C274.824 224.357 283.642 235.906 265.94 241.197C248.238 246.487 220.538 248.118 204.228 249.484C187.906 250.85 116.302 257.4 120.678 221.771L120.665 221.784Z" fill="#914D4D"/>
<path d="M118.384 227.672C118.384 227.672 119.418 253.953 182.694 253.29C245.984 252.627 275.593 250.333 275.646 228.812C275.076 222.248 278.338 212.754 237.285 206.827C196.233 200.887 169.116 193.528 149.107 195.132C129.111 196.736 116.939 213.006 118.358 227.672H118.384Z" fill="#DEAF9B"/>
<path d="M254.271 228.322C240.799 222.912 187.176 213.789 186.487 211.455C185.797 209.121 186.778 200.9 186.778 200.9C183.172 203.963 181.262 214.836 177.947 213.219C174.632 211.601 151.865 211.031 151.865 211.031C151.865 211.031 127.454 218.774 126.579 240.547C134.667 247.097 150.751 253.635 182.708 253.303C222.925 252.879 245.307 249.299 261.206 242.523C261.073 235.88 259.323 230.35 254.284 228.335L254.271 228.322Z" fill="#D19C86"/>
<path d="M261.776 223.23C269.454 225.603 273.896 233.599 272.026 241.409C269.228 253.064 265.091 266.589 252.614 302.749C235.349 352.752 235.164 354.595 227.924 352.858C221.944 351.426 223.057 343.815 224.98 323.647C226.16 311.249 229.793 276.044 234.514 258.501C239.248 240.945 245.612 220.816 257.944 222.408C259.336 222.593 260.609 222.872 261.776 223.23Z" fill="#914D4D"/>
<path d="M276.8 233.798C273.949 245.559 261.922 292.698 242.695 332.451C242.695 332.451 235.005 333.18 223.097 329.361C223.097 329.361 224.702 291.518 229.661 264.958C234.62 238.399 245.665 224.622 249.02 218.178C253.582 209.426 270.024 211.044 275.593 222.328C277.343 225.882 277.728 229.952 276.8 233.811V233.798Z" fill="#DEAF9B"/>
<path d="M230.045 264.959C231.53 257.042 233.413 250.134 235.455 244.207C238.531 236.158 241.939 230.032 244.671 225.457C248.635 226.982 252.468 228.931 254.496 229.992C261.723 233.771 264.216 256.22 264.521 276.866C258.912 294.157 251.566 314.086 242.682 332.451C242.682 332.451 236.649 333.021 226.995 330.502C225.298 329.958 224.052 329.547 223.468 329.362C223.468 329.362 225.073 291.518 230.032 264.959H230.045Z" fill="#D19C86"/>
<path d="M239.102 340.275C240.176 335.806 224.357 332.69 224.463 337.291C224.503 338.789 224.489 342.184 224.184 343.271C222.646 348.801 221.307 349.729 219.013 354.529C216.719 359.329 216.772 365.574 223.057 367.855C229.343 370.136 240.971 371.687 250.108 374.259C259.244 376.832 269.016 373.928 268.512 369.685C268.075 366.025 262.015 365.004 254.987 361.291C247.973 357.579 241.82 353.481 239.142 350.034C236.808 347.024 238.213 343.961 239.102 340.275Z" fill="#914D4D"/>
<path d="M273.259 374.578C273.259 374.578 273.219 375.784 272.583 376.315C271.96 376.845 261.948 377.946 255.504 377.11C249.06 376.275 239.248 373.809 231.65 373.583C224.224 373.358 218.96 373.742 214.823 372.363C214.651 372.31 214.544 372.138 214.544 371.952C214.611 370.441 214.743 369.194 214.743 369.194L251.221 371.395L273.246 374.578H273.259Z" fill="#BF846B"/>
<path d="M273.259 374.578C273.259 374.578 273.988 368.412 269.374 365.866C264.773 363.32 246.899 355.457 246.09 355.43C245.294 355.417 241.396 357.486 238.558 361.159C237.988 361.994 224.078 358.931 218.92 354.767C218.284 354.741 214.16 359.899 214.743 369.194C214.743 369.194 219.57 371.196 229.899 371.236C240.229 371.276 246.912 374.816 260.278 374.922C269.374 375.267 273.246 374.578 273.246 374.578H273.259Z" fill="#D19C86"/>
<path d="M177.311 155.525C181.779 160.073 181.116 166.04 181.607 172.391C182.098 178.73 189.192 194.562 189.338 200.887C189.55 209.545 186.341 215.194 176.847 230.456C167.353 245.718 159.092 260.994 132.241 255.213C105.403 249.431 110.839 220.472 112.643 211.641C114.353 203.274 114.87 197.347 124.377 185.585C126.115 183.702 126.937 176.316 126.95 172.073C126.976 164.979 128.157 158.959 133.699 154.53C138.38 150.791 145.434 147.741 155.962 147.741C167.883 147.741 172.643 150.765 177.311 155.512V155.525Z" fill="#9E5959"/>
<path d="M126.976 175.905C126.446 175.852 125.982 176.224 125.902 176.741C125.584 178.822 124.523 183.967 121.553 187.428C117.734 191.857 113.053 199.588 110.852 216.626C108.651 233.665 112.337 247.349 122.866 252.6C133.394 257.864 150.168 260.225 160.139 252.6C170.111 244.976 178.013 229.687 180.639 225.564C183.278 221.44 190.504 212.251 190.504 201.059C190.504 197.598 186.553 187.773 185.107 182.774C184.113 179.34 183.37 176.701 182.999 175.401C182.867 174.937 182.376 174.699 181.925 174.884C178.915 176.104 166.464 179.552 126.976 175.892V175.905Z" fill="#DEAF9B"/>
<path d="M189.895 206.827C186.102 209.745 183.159 219.968 180.069 218.045C176.927 216.096 154.332 213.258 154.332 213.258C154.332 213.258 118.649 220.75 127.268 254.51C137.651 258.329 151.468 259.257 160.14 252.614C170.111 244.989 178.014 229.701 180.639 225.577C182.801 222.182 188.078 215.353 189.895 206.814V206.827Z" fill="#D19C86"/>
<path d="M183.941 178.716C183.53 177.271 183.212 176.131 183 175.415C182.867 174.951 182.376 174.712 181.926 174.898C178.916 176.117 166.465 179.565 126.977 175.905C126.446 175.852 125.982 176.224 125.903 176.741C125.81 177.351 125.651 178.213 125.412 179.22C132.201 180.414 155.393 183.676 183.954 178.716H183.941Z" fill="#D19C86"/>
<path d="M132.082 185.161C132.426 185.121 132.771 185.134 133.116 185.187C145.951 190.968 158.986 196.339 172.179 201.271C179.048 203.671 185.784 206.655 190.73 212.131C192.056 213.431 193.992 214.624 195.331 216.229C195.039 216.838 194.774 217.409 194.562 217.899C194.098 218.947 193.448 220.644 192.6 222.739C178.624 223.362 137.717 194.946 124.179 216.865C124.179 201.563 127.427 193.859 130.345 189.178C131.127 187.932 131.684 186.54 132.068 185.161H132.082Z" fill="#D19C86"/>
<path d="M123.303 251.579C112.152 243.398 110.15 229.674 119.736 219.689C124.974 214.24 132.174 210.567 145.5 211.879C172.299 214.518 187.773 218.973 209.347 223.707C231.106 228.481 237.073 230.059 247.469 234.978C257.864 239.897 250.545 264.773 234.116 264.773C217.687 264.773 190.624 265.343 174.128 263.937C162.964 262.996 137.611 262.055 123.317 251.579H123.303Z" fill="#9E5959"/>
<path d="M111.608 233.665C111.608 233.665 106.848 263.261 178.358 265.555C198.049 266.192 212.184 266.404 222.447 266.245C247.734 265.834 249.497 262.174 252.945 249.948C259.296 227.393 219.61 223.336 201.603 220.233C183.384 217.09 160.723 211.733 149.16 209.744C131.617 206.721 113.292 212.755 111.621 233.665H111.608Z" fill="#DEAF9B"/>
<path d="M161.028 207.026C167.127 207.132 176.356 207.689 186.407 208.246C187.958 209.386 189.404 210.673 190.716 212.145C192.957 214.346 196.949 216.189 196.856 220.326C193.01 228.984 167.18 212.012 146.468 209.002C151.056 207.583 156.055 206.947 161.028 207.039V207.026Z" fill="#D19C86"/>
<path d="M178.359 265.555C203.009 266.351 219.292 266.642 230.284 265.9C227.5 255.557 227.301 246.885 227.301 246.885C227.301 246.885 216.375 258.156 211.747 260.463C203.234 264.707 189.351 265.184 174.009 265.383C175.428 265.449 176.873 265.515 178.359 265.568V265.555Z" fill="#D19C86"/>
<path d="M252.998 244.207C252.998 244.207 259.283 288.8 259.044 305.693C258.819 322.586 258.779 353.494 259.548 363.161C260.317 372.827 253.236 370.905 250.995 370.454C248.741 370.003 246.858 368.266 244.1 359.74C241.342 351.214 238.12 344.173 234.182 330.131C230.257 316.089 219.715 267.213 223.468 250.492C228.467 231.186 250.836 227.698 252.984 244.207H252.998Z" fill="#9E5959"/>
<path d="M235.376 233.679C228.626 236.795 222.169 241.542 222.447 260.437C222.739 279.332 228.812 316.46 238.531 347.276C238.531 347.276 252.547 347.475 259.946 344.783C259.946 344.783 260.543 273.379 254.35 245.082C252.6 236.94 246.514 228.534 235.376 233.679Z" fill="#DEAF9B"/>
<path d="M242.708 355.629C241.409 351.214 258.633 349.835 258.766 354.436C258.859 357.857 258.845 361.145 261.285 364.779C265.502 368.186 274.824 372.655 280.79 375.93C287.752 379.749 293.798 380.863 294.183 384.523C294.621 388.766 284.808 391.511 275.712 388.806C266.616 386.101 255.013 384.363 248.768 381.99C242.523 379.616 242.562 373.371 244.936 368.611C245.015 368.465 245.082 368.332 245.148 368.2C245.877 365.216 243.968 359.05 242.721 355.643L242.708 355.629Z" fill="#9E5959"/>
<path d="M298.651 390.158C298.651 390.158 298.559 391.365 297.909 391.869C297.259 392.372 287.221 393.088 280.817 392.001C274.412 390.914 264.706 388.063 257.122 387.546C249.709 387.029 244.432 387.214 240.348 385.663C240.175 385.597 240.069 385.424 240.083 385.252C240.202 383.753 240.388 382.507 240.388 382.507L276.759 386.127L298.638 390.171L298.651 390.158Z" fill="#EBC0AE"/>
<path d="M298.651 390.158C298.651 390.158 299.619 384.019 295.111 381.3C290.616 378.582 273.046 370.016 272.251 369.976C271.455 369.923 267.491 371.846 264.494 375.4C263.884 376.222 250.107 372.615 245.121 368.239C244.498 368.186 240.175 373.185 240.387 382.494C240.387 382.494 245.134 384.682 255.451 385.132C265.78 385.583 272.304 389.376 285.657 389.999C294.74 390.702 298.625 390.158 298.625 390.158H298.651Z" fill="#DEAF9B"/>
<path d="M167.591 106.026C167.604 104.952 167.75 103.864 168.055 102.777C169.938 95.9085 177.032 91.8776 183.901 93.7605C188.648 95.06 192.042 98.8522 193.063 103.334C193.063 103.334 194.416 108.492 193.448 118.755C192.467 129.032 188.555 167.326 188.555 167.326C188.515 167.883 188.422 168.44 188.263 168.997C187.004 173.572 182.336 175.547 177.761 174.288C173.929 173.24 171.304 168.665 171.33 164.873C171.33 164.873 166.265 117.602 167.604 106.013L167.591 106.026Z" fill="#914D4D"/>
<path d="M189.165 95.4313C189.165 95.4313 194.257 98.3484 195.066 106.954C195.875 115.56 195.238 124.749 194.363 129.297C193.488 133.845 192.573 141.509 192.811 143.644C193.037 145.779 192.984 150.194 191.95 150.606C190.915 151.03 186.235 150.552 181.461 151.162C176.687 151.786 171.291 149.041 167.671 149.041C164.051 149.041 166.027 144.586 166.186 142.597C166.345 140.594 165.947 126.804 165.602 116.13C165.258 105.456 169.169 85.5792 189.165 95.4313Z" fill="#E88D60"/>
<path d="M167.671 149.054C164.051 149.054 166.027 144.599 166.186 142.61C166.345 140.608 165.947 126.817 165.602 116.143C165.576 115.414 165.576 114.658 165.602 113.863C169.421 103.069 176.634 98.0966 179.923 98.1098C183.835 98.1231 191.035 104.833 191.035 104.833C191.035 104.833 192.957 110.919 193.448 113.465C193.806 115.281 194.058 118.358 195.304 120.731C195.119 124.218 194.774 127.242 194.376 129.31C193.501 133.858 192.586 141.523 192.825 143.657C193.05 145.792 192.997 150.208 191.963 150.619C190.929 151.043 186.248 150.566 181.474 151.176C176.701 151.799 171.304 149.054 167.684 149.054H167.671Z" fill="#D6794B"/>
<path d="M188.94 161.16C188.94 161.16 203.512 171.41 206.575 174.234C207.185 174.685 211.137 177.563 211.455 178.319C212.41 180.559 205.594 186.659 201.457 184.312C201.457 184.312 174.075 171.304 173.333 169.554C171.477 165.191 173.505 160.139 177.881 158.283C181.395 156.785 185.253 157.739 188.926 161.16H188.94Z" fill="#9E5959"/>
<path d="M172.816 164.555C174.46 157.037 183.331 155.313 188.94 161.16C188.94 161.16 191.963 163.282 195.543 165.868C194.31 166.266 193.223 166.637 192.971 166.663C190.133 167.353 193.117 177.828 192.427 179.923C184.379 175.972 173.81 170.628 173.346 169.541C172.67 167.963 172.498 166.186 172.816 164.542V164.555Z" fill="#914D4D"/>
<path d="M153.27 87.3296C156.705 86.8788 160.192 87.0643 163.56 87.8599C167.074 88.682 171.821 89.8091 175.043 90.5384C180.718 91.8378 187.083 93.8666 189.536 96.8501C191.989 99.8203 190.716 110.322 191.22 116.064C191.724 121.805 195.012 129.695 196.007 136.391C197.001 143.087 194.681 150.871 189.165 153.96C189.165 153.96 187.295 159.887 186.128 167.087C184.962 174.288 184.829 186.593 184.829 186.593C184.829 186.593 127.374 179.181 127.626 173.664C128.037 164.82 128.302 151.574 126.883 142.477C124.589 127.719 122.481 120.572 120.837 113.186C119.1 105.31 121.062 98.9849 129.058 94.6887C137.067 90.3925 143.79 88.934 143.79 88.934C143.79 88.934 148.232 88.0059 153.244 87.3429L153.27 87.3296Z" fill="#9E5959"/>
<path d="M142.822 89.2124L153.018 60.2264C154.437 54.7898 159.609 50.9976 165.403 51.5014C171.861 52.0583 176.648 57.76 176.077 64.2176C176.038 64.6949 175.958 65.1722 175.865 65.6363C175.759 66.1535 175.613 66.6441 175.441 67.1347L167.22 96.3993C167.114 96.9032 166.968 97.3937 166.809 97.8711C164.939 103.255 159.595 106.901 153.655 106.384C146.64 105.774 141.456 99.5949 142.066 92.5804C142.172 91.4003 142.424 90.2732 142.822 89.2257V89.2124Z" fill="#9E5959"/>
<path d="M153.111 59.9081C154.65 54.6439 159.728 51.0107 165.403 51.5014C171.861 52.0583 176.648 57.76 176.077 64.2175C176.038 64.6949 175.958 65.1721 175.865 65.6362C175.759 66.1534 175.613 66.644 175.441 67.1346L168.175 92.9782C165.165 91.7716 146.588 82.5957 153.111 59.9081Z" fill="#914D4D"/>
<path d="M169.275 89.2123C169.275 89.2123 172.139 96.0677 167.312 97.3937C162.486 98.7064 146.733 92.0633 143.365 87.661C143.365 87.661 131.829 89.8488 124.523 95.3118C121.778 99.5152 119.378 118.132 120.85 124.682C122.335 131.233 124.231 149.465 124.311 152.091C124.404 154.716 125.438 156.798 125.438 156.798C125.438 156.798 124.642 160.444 124.788 163.68C124.934 166.902 125.862 170.296 125.862 170.296C125.862 170.296 121.579 175.282 121.327 179.777C121.062 184.272 111.197 199.959 110.229 208.22C109.261 216.48 108.744 217.25 110.229 222.686C111.29 222.063 121.964 221.214 124.549 217.806C127.135 214.399 133.526 207.384 139.52 204.043C143.922 201.59 151.772 205.912 170.23 201.51C188.687 197.108 190.517 200.635 191.843 199.137C193.169 197.638 190.411 197.015 190.411 197.015C191.299 188.383 188.846 183.729 188.992 158.601C188.992 158.601 191.538 156.997 190.557 154.106C190.557 154.106 194.774 151.64 196.444 145.845C198.115 140.051 196.71 131.405 194.919 127.441C193.129 123.476 191.923 114.844 192.029 110.932C192.148 107.02 191.737 99.1441 190.172 96.6114C188.13 93.3363 177.138 90.0344 169.275 89.1991V89.2123Z" fill="#E88D60"/>
<path d="M194.813 149.611C192.93 152.727 190.57 154.106 190.57 154.106C190.57 154.106 187.56 154.809 184.882 154.769C184.709 154.769 184.67 154.517 184.829 154.464C186.672 153.814 191.353 152.051 194.813 149.611Z" fill="#D6794B"/>
<path d="M110.229 208.22C111.197 199.959 121.062 184.272 121.327 179.777C121.646 176.237 123.727 172.988 125.862 170.296C124.974 168.228 124.337 160.046 125.438 156.798C123.277 150.327 123.343 134.919 120.85 124.682C120.068 121.248 120.373 114.486 121.221 108.24C127.745 112.841 138.366 110.654 145.792 112.868C145.977 112.921 140.859 137.001 141.283 140.342C141.708 143.604 145.924 152.024 164.356 152.051C164.581 152.051 164.607 152.369 164.395 152.422C161.916 152.953 156.811 153.801 150.804 153.523C146.998 153.138 145.354 152.515 144.731 152.197C144.598 152.13 144.439 152.236 144.466 152.382C144.572 153.191 144.704 155.021 143.816 155.565C142.649 156.281 140.236 156.281 139.851 157.355C139.467 158.429 139.387 164.356 139.281 165.642C139.175 166.942 157.845 178.385 162.009 182.84C166.172 187.295 174.566 192.798 176.86 193.077C178.703 193.302 184.961 197.214 190.398 196.949C190.398 196.962 190.398 196.975 190.398 197.002C193.594 197.917 192.241 200.25 188.542 199.309C185.585 199.057 180.692 199.031 170.23 201.51C153.933 205.647 149.65 201.682 139.52 204.043C136.722 205.302 133.288 208.259 130.331 211.322C130.052 211.535 125.411 209.307 125.398 209.002C127.374 198.805 136.682 200.224 135.94 197.598C135.197 194.973 126.326 191.247 124.178 191.685C122.03 192.109 124.642 194.257 121.818 199.296C119.988 202.571 115.732 213.258 114.233 221.811C112.682 222.142 111.542 222.209 110.216 222.673C108.73 217.236 109.248 216.467 110.216 208.206L110.229 208.22Z" fill="#D6794B"/>
<path d="M188.979 158.561C187.64 158.893 186.247 158.561 185.014 159.291V159.37C186.287 160.259 187.799 159.185 189.005 158.628L188.979 158.548V158.561Z" fill="#D6794B"/>
<path d="M179.551 18.975C179.551 18.975 157.633 12.8357 149.902 38.5996C142.464 63.3558 156.678 90.1141 176.038 90.6313C182.309 90.4324 190.12 78.8034 196.497 59.6032C202.875 40.4029 198.871 24.4248 179.551 18.975Z" fill="#9E5959"/>
<path d="M178.637 67.2276C178.637 67.2276 178.597 64.8144 173.624 62.8121C169.593 61.1812 166.318 60.5048 165.284 63.0109C163.626 66.127 178.597 73.115 178.623 67.2409L178.637 67.2276Z" fill="#914D4D"/>
<path d="M192.957 69.1502C192.122 71.1657 191.273 73.0619 190.411 74.8122C187.587 73.632 185.359 71.6299 185.77 70.5425C186.38 68.3016 189.297 68.0231 192.957 69.1369V69.1502Z" fill="#914D4D"/>
<path d="M174.698 59.1392C174.3 60.5447 174.831 61.9237 175.878 62.2287C176.926 62.5336 178.106 61.632 178.517 60.2264C178.915 58.8209 178.384 57.4419 177.337 57.1369C176.289 56.8319 175.109 57.7336 174.698 59.1392Z" fill="#121D3F"/>
<path d="M188.276 62.666C187.892 64.0185 188.396 65.3445 189.417 65.6362C190.438 65.9279 191.565 65.0661 191.949 63.7136C192.334 62.3611 191.83 61.0351 190.809 60.7434C189.788 60.4517 188.661 61.3135 188.276 62.666Z" fill="#121D3F"/>
<path d="M180.572 72.8231C181.408 73.1016 182.521 73.38 183.317 73.2739C184.603 73.1148 184.603 72.0142 184.617 70.9667C184.617 70.7943 184.617 70.5955 184.617 70.3966C184.749 63.5413 185.439 60.2129 185.439 60.1732C185.518 59.8019 185.28 59.4439 184.908 59.3643C184.537 59.2848 184.179 59.5235 184.099 59.8948C184.073 60.0274 183.383 63.3556 183.237 70.3701C183.237 70.5822 183.237 70.7811 183.237 70.9667C183.237 71.338 183.237 71.7624 183.184 71.9215C183.184 71.9215 183.158 71.9215 183.145 71.9215C182.376 72.0144 180.758 71.4838 179.923 71.1258C179.578 70.98 179.167 71.1258 179.021 71.4839C178.875 71.8286 179.021 72.2397 179.379 72.3856C179.485 72.4254 179.949 72.6242 180.559 72.8231H180.572Z" fill="#723333"/>
<path d="M181.872 52.5886C181.872 52.5886 183.012 52.8141 182.906 53.6362C182.787 54.5512 182.813 55.0152 182.23 55.0948C181.66 55.1743 176.541 53.7556 173.73 53.1722C170.879 52.5755 169.593 52.4826 169.487 52.1511C169.368 51.8196 172.126 50.8782 175.03 51.329C178.424 51.8594 178.345 51.8196 181.872 52.5886Z" fill="#20355E"/>
<path d="M173.717 51.223C173.412 51.7932 173.094 52.39 172.722 52.9734C170.574 52.5491 169.58 52.443 169.487 52.1646C169.394 51.8861 171.343 51.17 173.717 51.223Z" fill="#192B4F"/>
<path d="M189.868 54.8562C189.868 54.8562 188.78 54.4716 188.449 55.2407C188.078 56.0893 187.826 56.4739 188.29 56.8452C188.741 57.2032 192.52 58.012 195.251 58.9402C198.009 59.8817 197.89 59.6562 198.168 59.4308C198.434 59.2054 198.274 58.0385 195.543 56.9512C192.361 55.6783 193.315 55.9964 189.894 54.8693L189.868 54.8562Z" fill="#20355E"/>
<path d="M185.399 78.7107C184.113 79.9173 177.509 84.5449 172.179 74.9315C172.073 74.7459 172.258 74.5337 172.457 74.5867C174.738 75.263 183.582 77.8886 185.319 78.3925C185.452 78.4322 185.492 78.6046 185.386 78.6974L185.399 78.7107Z" fill="white"/>
<path d="M176.024 82.4367C176.104 82.4632 176.183 82.4765 176.276 82.4632C177.801 82.2378 179.432 83.1793 179.445 83.1926C179.684 83.3384 179.989 83.2589 180.135 83.0202C180.281 82.7815 180.201 82.4765 179.962 82.3306C179.883 82.2909 178.027 81.2035 176.13 81.482C175.852 81.5218 175.666 81.7736 175.706 82.0521C175.733 82.2377 175.865 82.3836 176.024 82.4499V82.4367Z" fill="#914D4D"/>
<path d="M157.077 18.0601C157.077 18.0601 151.971 12.7825 144.108 14.0952C144.108 14.0952 145.859 23.2843 155.406 24.5307C164.953 25.7772 157.077 18.0732 157.077 18.0732V18.0601Z" fill="#E9E9F0"/>
<path d="M157.209 20.9108C157.209 20.9108 150.473 20.5926 145.633 25.6976C140.793 30.8027 137.107 41.53 137.107 41.53C137.107 41.53 148.126 40.3366 154.239 34.6084C160.351 28.8801 157.209 20.9108 157.209 20.9108Z" fill="white"/>
<path d="M186.367 18.206C186.367 18.206 188.184 17.5165 188.33 15.0767C188.476 12.6368 186.792 13.0876 186.261 11.8279C185.717 10.5682 183.689 10.1571 183.689 10.1571C183.689 10.1571 185.399 6.97472 182.827 5.30398C180.254 3.63324 180.347 2.77135 178.796 2.98351C177.244 3.19567 176.913 4.01782 176.913 4.01782C176.913 4.01782 175.6 0.928269 172.153 1.36584C168.705 1.80342 168.559 3.36808 167.843 3.84543C167.127 4.32279 166.318 4.85319 166.318 4.85319C166.318 4.85319 164.396 5.17139 163.282 4.15038C162.168 3.12937 158.588 3.80567 158.349 5.35707C158.124 6.89522 155.644 7.3726 155.724 10.0246C155.803 12.6898 153.867 12.2124 153.973 15.1429C154.079 18.0733 153.271 19.8634 156.029 20.6855C158.773 21.5077 186.38 18.2192 186.38 18.2192L186.367 18.206Z" fill="#20355E"/>
<path d="M164.714 11.4036C166.133 12.0798 167.737 10.9793 167.777 9.42789C168.029 7.53173 166.995 5.67523 167.843 3.83211C165.443 5.84761 169.076 11.3373 164.714 11.4036Z" fill="#192B4F"/>
<path d="M165.774 7.46539C165.164 5.80791 162.831 5.19804 161.438 6.23231C162.99 6.35165 164.409 6.68306 165.774 7.46539Z" fill="#192B4F"/>
<path d="M183.688 10.1439C181.713 9.65324 179.883 8.43339 177.814 8.71185C176.435 8.77815 175.229 10.2235 176.077 11.5097C176.011 7.42563 181.421 10.6875 183.688 10.1439Z" fill="#192B4F"/>
<path d="M176.913 3.99123C177.496 4.85312 177.788 5.74155 178.159 6.66974C178.875 7.84987 180.387 8.00904 180.758 9.3748C181.156 7.90296 179.419 7.16039 178.769 6.20568C178.411 5.29075 177.801 4.4288 176.913 3.99123Z" fill="#192B4F"/>
<path d="M187.189 20.6723C187.189 20.6723 188.33 19.3993 187.6 18.1927C186.871 16.986 184.086 15.5273 181.076 15.0898C178.08 14.6522 171.251 13.4324 167.578 13.7507C163.905 14.0689 154.185 17.901 156.108 22.3563L187.189 20.659V20.6723Z" fill="white"/>
<path d="M187.004 35.9079C187.004 35.9079 186.593 42.2725 181.991 44.4206C177.404 46.5687 175.003 46.6218 173.558 48.9688C172.113 51.3158 171.079 54.644 167.22 56.2352C163.361 57.8263 163.162 59.643 163.799 63.0507C164.435 66.4453 164.594 66.9226 162.977 68.8055C161.359 70.6884 160.192 73.3536 162.42 74.9581C162.42 74.9581 159.052 73.7382 159.794 69.6541C160.537 65.5701 161.77 64.3105 161.147 62.5999C160.524 60.8894 160.736 59.8684 159.476 59.9612C158.216 60.0541 156.97 59.2718 155.631 62.7989C154.292 66.326 151.64 67.2011 150.486 68.5536C149.332 69.9061 149.903 74.8786 149.133 77.3714C148.364 79.8643 145.978 79.8245 145.978 79.8245C145.978 79.8245 143.75 80.3417 143.22 78.2068C143.22 78.2068 136.868 77.7028 137.253 73.274C137.253 73.274 134.601 69.8133 138.154 62.7723C138.154 62.7723 135.542 58.7015 137.544 52.3103C139.56 45.919 144.599 44.5665 145.341 40.4824C145.341 40.4824 145.301 33.7597 147.556 30.511C149.81 27.2623 153.562 26.1751 155.432 22.6613C157.302 19.1607 162.473 15.8854 168.267 16.4556C174.075 17.0258 177.364 16.8931 181.62 17.2379C185.877 17.5826 187.203 21.4679 190.571 22.6878C193.939 23.9077 198.248 24.8756 200.078 27.1828C201.908 29.5032 200.675 31.6381 203.035 34.3166C205.395 37.0083 206.668 43.7974 204.016 49.4461C201.364 55.0816 196.829 59.1126 197.638 65.1061C198.447 71.0995 197.227 74.0299 194.827 76.284C192.427 78.5382 190.464 81.6676 192.652 84.7571C192.652 84.7571 189.775 82.8477 189.576 80.7792C189.377 78.7106 189.616 76.284 189.616 76.284C189.616 76.284 197.333 60.8099 198.54 51.17C198.54 51.17 197.771 49.7246 198.102 47.8417C198.42 45.9588 198.951 44.5399 198.182 43.4394C197.399 42.3388 194.137 41.3178 193.024 38.9708C191.91 36.6238 189.47 35.0062 186.99 35.9211L187.004 35.9079Z" fill="#20355E"/>
<path d="M184.047 30.007C183.596 37.2204 180.135 36.2658 174.897 38.5332C170.76 40.4161 166.093 44.4737 167.525 49.5124C166.769 44.6063 171.224 41.0659 175.229 39.236C180.559 36.9553 184.391 37.406 184.047 30.007Z" fill="#192B4F"/>
<path d="M172.869 26.4004C172.577 34.4757 157.62 26.0026 158.574 35.7221C159.277 38.8117 160.563 41.5565 156.745 43.0681C159.622 42.4051 160.418 39.952 159.569 37.3398C156.387 26.4137 173.359 35.3641 172.869 26.3871V26.4004Z" fill="#192B4F"/>
<path d="M150.088 47.099C147.118 47.099 142.769 48.8096 143.644 52.4826C144.307 55.665 147.317 60.518 143.538 62.7192C147.503 61.3534 145.54 56.2352 144.705 53.3578C142.941 49.5257 146.972 47.762 150.075 47.099H150.088Z" fill="#192B4F"/>
<path d="M146.906 64.0186C143.936 63.9788 142.398 67.5193 144.93 69.3624C143.671 67.0286 144.652 65.1457 146.906 64.0186Z" fill="#192B4F"/>
<path d="M186.897 24.3187C189.138 27.8591 190 32.5265 187.004 35.9078C191.021 33.2293 190.199 27.2358 186.897 24.3187Z" fill="#192B4F"/>
<path d="M192.904 30.3122C195.158 31.7707 197.505 33.468 197.956 36.2924C198.686 33.2824 195.662 30.6967 192.904 30.3122Z" fill="#192B4F"/>
<path d="M160.471 61.7513C160.471 61.7513 162.698 51.9654 159.516 50.2549C156.334 48.5444 153.828 50.9842 153.483 55.0284C153.125 59.0727 154.451 63.5812 155.684 64.4298C156.93 65.2784 160.471 61.7513 160.471 61.7513Z" fill="#9E5959"/>
<path d="M157.329 60.9822C157.488 61.0087 157.66 60.9424 157.74 60.7965C160.352 56.3412 158.495 52.9201 158.416 52.7743C158.31 52.5886 158.071 52.5223 157.885 52.6284C157.7 52.7345 157.634 52.9732 157.74 53.1588C157.806 53.2914 159.45 56.3544 157.063 60.4119C156.957 60.5976 157.01 60.8363 157.196 60.9424C157.236 60.9689 157.276 60.9822 157.315 60.9822H157.329Z" fill="#723333"/>
<path d="M158.19 59.0461C158.19 59.0461 158.217 59.0461 158.23 59.0461C158.442 59.0727 158.641 58.9135 158.654 58.7014C158.919 56.1024 157.235 55.5853 157.156 55.5721C156.944 55.519 156.732 55.6385 156.679 55.8374C156.626 56.0363 156.732 56.2617 156.944 56.3147C156.997 56.328 158.071 56.6992 157.885 58.6219C157.859 58.8208 158.005 59.0064 158.19 59.0461Z" fill="#723333"/>
<path d="M119.193 101.571C119.591 100.55 120.134 99.5551 120.81 98.6137C125.093 92.6865 133.381 91.3604 139.295 95.6433C143.392 98.6135 145.288 103.48 144.652 108.161C144.652 108.161 145.819 111.542 141.178 121.076C136.537 130.61 118.981 171.702 118.981 171.702C118.742 172.219 118.45 172.723 118.105 173.2C115.241 177.152 109.685 178.106 105.774 175.176C102.817 172.962 100.046 168.745 101.053 164.926C101.053 164.926 113.716 112.245 119.18 101.571H119.193Z" fill="#9E5959"/>
<path d="M108.293 136.417C113.372 137.677 124.55 142.61 130.384 145.262C128.713 149.094 127.056 152.926 125.544 156.44C120.452 154.424 110.004 150.128 107.551 147.993C106.768 147.33 106.039 147.304 105.389 147.596C106.291 144.095 107.272 140.303 108.306 136.417H108.293Z" fill="#914D4D"/>
<path d="M136.855 92.8323C140.355 93.7737 143.206 95.5108 144.691 98.8125C146.163 102.074 147.277 106.848 145.792 112.855C142.861 124.709 137.823 135.198 136.285 137.438C134.746 139.679 134.879 140.647 134.468 141.589C134.057 142.53 131.988 153.403 130.981 154.424C129.973 155.445 107.869 150.274 104.633 140.21C104.434 139.109 104.686 138.552 106.052 137.465C107.418 136.378 108.015 129.111 110.759 123.357C110.759 123.357 114.817 107.935 118.795 101.146C122.203 95.3384 128.01 90.4588 136.841 92.819L136.855 92.8323Z" fill="#E88D60"/>
<path d="M143.286 99.7804C145.288 102.631 144.877 105.588 146.031 108.665L146.176 108.678C147.131 107.14 146.932 105.297 146.176 103.745C145.553 102.181 144.598 100.775 143.392 99.6744L143.272 99.7673L143.286 99.7804Z" fill="#D6794B"/>
<path d="M104.289 117.151C104.289 117.151 96.081 119.074 96.081 140.422V217.634C96.081 217.634 92.9516 230.31 123.237 233.877C154.265 237.524 155.764 244.724 155.764 269.361C155.764 269.361 142.623 271.018 130.305 269.653C117.986 268.287 91.4268 268.008 88.682 246.925C85.9504 225.842 89.2256 196.551 88.682 179.021C88.2842 166.398 88.4565 139.865 88.5891 125.995C88.6289 121.089 92.6201 117.138 97.5263 117.138H104.289V117.151Z" fill="#6482A1"/>
<path d="M319.284 352.328C319.284 352.328 302.471 351.068 292.38 364.102C282.289 377.137 262.32 379.033 254.536 374.193C254.536 374.193 254.112 376.713 255.584 379.868C255.584 379.868 243.809 378.184 239.818 390.795C239.818 390.795 248.649 400.461 319.271 400.461H319.39C390.026 400.461 398.843 390.795 398.843 390.795C394.852 378.184 383.077 379.868 383.077 379.868C384.549 376.713 384.125 374.193 384.125 374.193C376.341 379.033 356.372 377.137 346.281 364.102C336.191 351.068 319.377 352.328 319.377 352.328H319.258H319.284Z" fill="#8F6F6F"/>
<path d="M325.556 354.767L315.983 354.953L313.556 352.606C316.977 352.169 319.284 352.341 319.284 352.341H319.404C319.404 352.341 322.546 352.102 326.922 352.885L325.556 354.767Z" fill="#876565"/>
<path d="M322.281 359.766H319.032C317.229 359.766 315.77 358.308 315.77 356.504V212.211H325.543V356.504C325.543 358.308 324.084 359.766 322.281 359.766Z" fill="#8F6F6F"/>
<path d="M325.556 294.197C324.31 293.666 323.077 293.136 321.87 292.619C320.199 291.889 318.131 291.293 315.771 290.775V216.945H325.543V294.197H325.556Z" fill="#876565"/>
<path d="M383.091 379.868C345.592 389.031 293.123 389.004 255.584 379.868C290.908 392.333 347.727 392.359 383.091 379.868Z" fill="#855E5E"/>
<path d="M138.367 215.062C138.367 219.252 219.981 222.646 320.663 222.646C421.345 222.646 502.96 219.252 502.96 215.062V205.05C502.96 205.05 411.904 207.477 320.663 207.477C229.422 207.477 138.367 205.05 138.367 205.05V215.062Z" fill="#B37769"/>
<path d="M320.663 212.635C421.343 212.635 502.96 209.239 502.96 205.05C502.96 200.862 421.343 197.466 320.663 197.466C219.984 197.466 138.367 200.862 138.367 205.05C138.367 209.239 219.984 212.635 320.663 212.635Z" fill="#CC8F7F"/>
<path d="M328.632 204.069C339.939 204.069 349.106 202.894 349.106 201.444C349.106 199.994 339.939 198.818 328.632 198.818C317.325 198.818 308.159 199.994 308.159 201.444C308.159 202.894 317.325 204.069 328.632 204.069Z" fill="#BA7B6A"/>
<path d="M118.265 161.081C118.265 161.081 150.844 184.856 154.411 187.044C155.101 187.362 158.469 188.118 158.933 188.794C160.299 190.809 154.663 199.548 150.155 198.036C150.155 198.036 122.481 184.246 105.867 175.6C98.0037 169.978 100.656 162.433 104.581 159.768C107.75 157.62 113.995 158.442 118.265 161.081Z" fill="#9E5959"/>
<path d="M120.811 163.057C118.954 161.054 115.082 158.866 112.722 161.306L112.762 161.479C114.234 162.102 115.334 162.102 116.806 162.049C118.106 162.155 119.445 162.539 120.705 163.202L120.811 163.057Z" fill="#914D4D"/>
<path d="M153.523 187.335C153.523 187.335 158.031 188.104 160.617 186.991C163.189 185.877 165.523 185.307 166.597 185.333C167.671 185.36 168.917 185.691 168.917 185.691C168.917 185.691 171.636 184.909 172.948 186.261C172.948 186.261 174.977 185.307 176.343 186.301C176.343 186.301 178.332 186.089 179.088 187.216C179.843 188.343 182.933 191.791 183.251 193.143C183.583 194.496 182.482 198.301 182.164 200.052C181.846 201.802 179.883 202.094 179.711 201.563C179.711 201.563 177.881 202.425 176.966 201.298C176.966 201.298 175.454 202.12 174.513 200.754C174.513 200.754 173.306 201.152 172.365 200.98C170.76 200.688 170.177 197.638 169.938 197.4C169.7 197.161 165.868 197.652 163.467 198.209C162.049 198.54 159.874 199.057 157.593 199.349C156.002 199.548 153.284 199.243 150.711 198.315C147.277 197.081 153.496 187.349 153.496 187.349L153.523 187.335Z" fill="#9E5959"/>
<path d="M163.494 198.195C163.176 198.275 162.818 198.354 162.433 198.447C159.595 197.996 159.211 197.466 159.211 197.466C160.908 196.843 162.963 192.838 163.666 192.082C164.369 191.327 165.417 190.12 166.769 190.253C168.122 190.398 169.023 192.918 169.023 192.918C169.023 192.918 169.461 196.087 169.965 197.386C169.726 197.148 165.894 197.638 163.494 198.195Z" fill="#723333"/>
<path d="M170.654 187.945C171.516 189.377 172.537 190.77 172.856 192.44C173.373 195.212 173.757 198.009 174.5 200.741H174.553C174.367 197.757 173.837 194.827 173.094 191.936C172.617 190.438 171.596 189.178 170.681 187.919L170.641 187.945H170.654Z" fill="#723333"/>
<path d="M174.314 188.515C175.123 189.921 176.051 191.326 176.316 192.931C176.568 195.649 176.568 198.407 176.953 201.126H177.006C177.165 198.235 177.138 195.318 176.608 192.467C176.144 191.008 175.242 189.735 174.367 188.502L174.327 188.529L174.314 188.515Z" fill="#723333"/>
<path d="M177.152 188.436C178.08 189.868 179.247 191.234 179.791 192.865C179.95 195.755 179.578 198.659 179.711 201.563H179.764C180.215 198.672 180.467 195.729 180.149 192.812C179.552 191.141 178.252 189.815 177.192 188.423L177.152 188.449V188.436Z" fill="#723333"/>
<path d="M196.484 181.143C196.484 181.143 198.633 183.715 199.057 185.36C199.494 187.004 200.542 191.035 201.099 192.599C201.656 194.151 204.096 200.317 204.599 200.927C205.117 201.537 206.496 199.084 206.562 197.532C206.628 195.981 205.978 193.262 205.687 191.963C205.395 190.664 205.594 189.55 206.31 189.059C207.026 188.569 212.436 192.653 213.523 193.581C214.611 194.509 215.194 201.696 216.003 202.982C216.812 204.268 218.164 203.154 218.005 201.669C218.005 201.669 219.755 205.011 220.379 200.012C220.379 200.012 221.917 200.701 221.824 197.771C221.824 197.771 222.792 198.659 223.177 196.524C223.601 194.164 223.826 191.154 222.726 187.07C221.996 184.378 216.547 181.766 211.495 178.16C209.598 176.807 210.354 177.735 205.514 173.466C200.675 169.196 189.563 174.394 196.471 181.143H196.484Z" fill="#9E5959"/>
<path d="M218.072 201.656C218.098 199.017 218.005 196.233 217.979 193.594C217.939 192.016 215.87 189.841 214.637 189.404C215.353 190.836 216.56 192.109 217.011 193.634C217.21 195.079 217.382 196.922 217.554 198.381C217.7 199.481 217.82 200.582 217.979 201.669C217.979 201.722 218.085 201.722 218.085 201.669L218.072 201.656Z" fill="#723333"/>
<path d="M220.445 199.998C220.498 197.479 220.71 194.88 220.418 192.374C219.875 190.69 218.708 188.608 217.395 187.707C217.912 189.51 218.827 191.128 219.596 192.798C219.954 194.907 220.1 197.837 220.352 199.998C220.352 200.052 220.458 200.065 220.458 199.998H220.445Z" fill="#723333"/>
<path d="M221.891 197.757C221.983 195.556 222.156 193.209 222.103 190.995C221.811 189.563 221.015 187.654 219.955 186.858C220.167 188.436 220.71 189.855 221.214 191.326C221.36 192.387 221.413 193.886 221.519 194.96C221.612 195.888 221.692 196.829 221.784 197.757C221.784 197.811 221.877 197.824 221.891 197.757Z" fill="#723333"/>
<path d="M287.328 203.976L142.04 203.976C141.363 203.976 140.82 203.433 140.82 202.757V198.407C140.82 197.731 141.363 197.187 142.04 197.187L288.548 197.187V202.77C288.548 203.446 288.004 203.99 287.328 203.99V203.976Z" fill="#222E56"/>
<path d="M205.355 144.4L186.672 197.174H198.169L217.382 142.901H207.464C206.522 142.901 205.674 143.498 205.355 144.387V144.4Z" fill="#34427D"/>
<path d="M208.551 142.915L189.338 197.187H288.548L306.701 145.898C307.218 144.44 306.131 142.915 304.593 142.915H208.551Z" fill="#293463"/>
<path d="M255.292 168.48L256.353 180.506H242.854L255.292 168.48Z" fill="#222E56"/>
<path opacity="0.54" d="M332.782 161.452C332.782 161.452 336.548 157.792 334.679 152.091C332.809 146.389 328.765 142.994 329.56 139.467C330.356 135.94 337.98 128.621 327.744 123.264C327.744 123.264 332.066 126.579 328.937 131.273C325.808 135.967 321.962 137.863 322.069 143.631C322.175 149.399 333.989 148.815 332.782 161.439V161.452Z" fill="white"/>
<path opacity="0.54" d="M315.863 141.602C315.863 141.602 312.985 146.76 318.992 150.287C325.635 154.186 324.747 157.62 321.604 162.314C321.604 162.314 323.05 158.336 320.305 155.697C317.56 153.059 306.992 151.043 315.863 141.602Z" fill="white"/>
<path d="M307.575 181.886C307.628 178.186 310.678 175.216 314.378 175.269C318.077 175.322 321.047 178.372 320.994 182.071C320.941 185.771 317.892 188.741 314.192 188.688C310.493 188.635 307.522 185.585 307.575 181.886ZM309.312 181.912C309.273 184.657 311.474 186.911 314.219 186.951C316.963 186.991 319.218 184.789 319.257 182.045C319.297 179.3 317.096 177.046 314.351 177.006C311.606 176.966 309.352 179.167 309.312 181.912Z" fill="#4D4C70"/>
<path d="M312.283 173.24L344.822 173.704C344.822 173.704 348.734 189.245 338.802 200.661C338.789 201.974 334.002 202.969 328.128 202.889C322.254 202.809 317.507 201.669 317.52 200.357C307.92 188.661 312.269 173.24 312.269 173.24H312.283Z" fill="#676694"/>
<path d="M340.394 198.659C339.916 199.335 339.386 199.998 338.816 200.661C338.802 201.974 334.015 202.969 328.141 202.889C322.267 202.809 317.52 201.669 317.534 200.357C307.933 188.661 312.283 173.24 312.283 173.24L344.822 173.704C344.822 173.704 345.021 174.513 345.22 175.905C342.038 176.78 332.239 179.127 321.962 178.252C309.644 177.218 315.942 200.396 340.367 198.646L340.394 198.659Z" fill="#5C5B84"/>
<path d="M312.283 173.24C312.269 174.553 319.536 175.72 328.526 175.852C337.516 175.985 344.809 175.017 344.836 173.704C344.849 172.391 337.583 171.225 328.592 171.092C319.602 170.959 312.309 171.927 312.283 173.24Z" fill="#676694"/>
<path d="M344.252 174.314C342.356 175.295 336.031 175.945 328.526 175.839C321.021 175.733 314.709 174.898 312.853 173.863C314.749 172.882 321.074 172.232 328.579 172.338C336.084 172.445 342.396 173.28 344.252 174.314Z" fill="#A86D5D"/>
<path d="M507.322 241.674L467.039 412.554H479.688L484.979 390.025H549.369L545.325 412.554H557.351L587.703 241.674H507.322Z" fill="#B37769"/>
<path d="M467.039 412.554H471.507L507.322 266.881V241.674L467.039 412.554Z" fill="#CC8F7F"/>
<path d="M615.35 412.554H610.67L605.618 390.025L610.086 389.986L615.35 412.554Z" fill="#BD8173"/>
<path d="M587.902 241.674L628 412.554H615.35L610.06 390.025H545.67L549.714 412.554H537.687L507.322 241.674H587.902Z" fill="#CC8F7F"/>
<path d="M537.687 412.554H533.02L507.322 266.881V241.674L537.687 412.554Z" fill="#BD8173"/>
<path d="M542.063 378.211L519.097 249.551H580.411L610.577 378.211H542.063Z" fill="#87454A"/>
<path d="M608.044 367.418L610.577 378.211H542.063L519.097 249.564C519.097 249.564 554.329 358.149 608.044 367.431V367.418Z" fill="#804146"/>
<path d="M529.161 263.089H575.876C577.056 263.089 578.01 262.134 578.01 260.954C578.01 259.774 577.056 258.819 575.876 258.819H529.161C527.981 258.819 527.026 259.774 527.026 260.954C527.026 262.134 527.981 263.089 529.161 263.089Z" fill="#8F4F53"/>
<path d="M531.415 274.917H545.02C545.617 274.917 546.094 274.439 546.094 273.843C546.094 273.246 545.617 272.769 545.02 272.769H531.415C530.819 272.769 530.341 273.246 530.341 273.843C530.341 274.439 530.819 274.917 531.415 274.917Z" fill="#8F4F53"/>
<path d="M553.215 274.917H579.363C579.96 274.917 580.437 274.439 580.437 273.843C580.437 273.246 579.96 272.769 579.363 272.769H553.215C552.618 272.769 552.141 273.246 552.141 273.843C552.141 274.439 552.618 274.917 553.215 274.917Z" fill="#8F4F53"/>
<path d="M533.311 284.199H561.555C562.152 284.199 562.629 283.721 562.629 283.124C562.629 282.528 562.152 282.05 561.555 282.05H533.311C532.715 282.05 532.237 282.528 532.237 283.124C532.237 283.721 532.715 284.199 533.311 284.199Z" fill="#8F4F53"/>
<path d="M570.055 284.199H581.577C582.174 284.199 582.651 283.721 582.651 283.124C582.651 282.528 582.174 282.05 581.577 282.05H570.055C569.458 282.05 568.98 282.528 568.98 283.124C568.98 283.721 569.458 284.199 570.055 284.199Z" fill="#8F4F53"/>
<path d="M534.849 293.467H545.02C545.616 293.467 546.094 292.99 546.094 292.393C546.094 291.796 545.616 291.319 545.02 291.319H534.849C534.253 291.319 533.775 291.796 533.775 292.393C533.775 292.99 534.253 293.467 534.849 293.467Z" fill="#8F4F53"/>
<path d="M553.214 293.467H583.619C584.216 293.467 584.693 292.99 584.693 292.393C584.693 291.796 584.216 291.319 583.619 291.319H553.214C552.617 291.319 552.14 291.796 552.14 292.393C552.14 292.99 552.617 293.467 553.214 293.467Z" fill="#8F4F53"/>
<path d="M537.555 302.749H563.822C564.419 302.749 564.896 302.272 564.896 301.675C564.896 301.078 564.419 300.601 563.822 300.601H537.555C536.958 300.601 536.48 301.078 536.48 301.675C536.48 302.272 536.958 302.749 537.555 302.749Z" fill="#8F4F53"/>
<path d="M571.089 302.749H585.568C586.165 302.749 586.643 302.272 586.643 301.675C586.643 301.078 586.165 300.601 585.568 300.601H571.089C570.492 300.601 570.015 301.078 570.015 301.675C570.015 302.272 570.492 302.749 571.089 302.749Z" fill="#8F4F53"/>
</svg>
